<svg viewBox="0 0 400 100" xmlns="http://www.w3.org/2000/svg">
  <g>
    <path fill="#E64C3C" d="M30.5,49.2c-6.1-6.2-6.1-16.2,0-22.4L80.6,0.9c6.1-6.2,16-6.2,22.1,0l50.1,51.8c6.1,6.2,6.1,16.2,0,22.4l-50.1,51.8c-6.1,6.2-16,6.2-22.1,0L30.5,49.2z M128.8,22c2.9,0,5.2,2.3,5.2,5.2c0,2.9-2.3,5.2-5.2,5.2c-2.9,0-5.2-2.3-5.2-5.2C123.6,24.3,125.9,22,128.8,22z M150.3,63.1c-2.9,0-5.2-2.3-5.2-5.2c0-2.9,2.3-5.2,5.2-5.2c2.9,0,5.2,2.3,5.2,5.2C155.5,60.8,153.2,63.1,150.3,63.1z"/>
    <path fill="#F2C94C" d="M168.6,81.4c-9.7,9.7-25.4,9.7-35.1,0c-9.7-9.7-9.7-25.4,0-35.1c9.7-9.7,25.4-9.7,35.1,0C178.3,56,178.3,71.7,168.6,81.4z"/>
  </g>
  <text x="50%" y="60%" fill="#1D3557" font-size="40" font-weight="bold" text-anchor="middle" dominant-baseline="middle">SurfShop</text>
</svg>